<?xml version="1.0" encoding="UTF-8" standalone="no"?>
<svg
   viewBox="0 0 2500 2500"
   version="1.1"
   id="svg14"
   sodipodi:docname="binance.svg"
   width="2500"
   height="2500"
   inkscape:version="1.1.1 (3bf5ae0d25, 2021-09-20)"
   xmlns:inkscape="http://www.inkscape.org/namespaces/inkscape"
   xmlns:sodipodi="http://sodipodi.sourceforge.net/DTD/sodipodi-0.dtd"
   xmlns="http://www.w3.org/2000/svg"
   xmlns:svg="http://www.w3.org/2000/svg"
   xmlns:rdf="http://www.w3.org/1999/02/22-rdf-syntax-ns#"
   xmlns:cc="http://creativecommons.org/ns#"
   xmlns:dc="http://purl.org/dc/elements/1.1/">
  <sodipodi:namedview
     id="namedview16"
     pagecolor="#ffffff"
     bordercolor="#666666"
     borderopacity="1.0"
     inkscape:pageshadow="2"
     inkscape:pageopacity="0.0"
     inkscape:pagecheckerboard="0"
     showgrid="false"
     inkscape:zoom="0.149"
     inkscape:cx="647.65101"
     inkscape:cy="1419.4631"
     inkscape:window-width="1920"
     inkscape:window-height="1017"
     inkscape:window-x="-8"
     inkscape:window-y="-8"
     inkscape:window-maximized="1"
     inkscape:current-layer="svg14" />
  <defs
     id="defs4">
    <style
       id="style2">.cls-1{fill:#f3ba2f;}</style>
  </defs>
  <title
     id="title6">bi</title>
  <g
     id="Layer_2"
     data-name="Layer 2">
    <g
       id="Layer_1-2"
       data-name="Layer 1">
      <path
         class="cls-1"
         d="M 764.48,1050.52 1250,565 1735.75,1050.73 2018.25,768.23 1250,0 482,768 764.49,1050.5 M 0,1250 282.51,967.45 565,1249.94 282.49,1532.45 Z M 764.48,1449.51 1250,1935 l 485.74,-485.72 282.65,282.35 -0.14,0.15 L 1250,2500 482,1732 l -0.4,-0.4 282.91,-282.12 M 1935,1250.12 2217.51,967.61 2500,1250.1 2217.5,1532.61 Z"
         id="path8" />
      <path
         class="cls-1"
         d="m 1536.52,1249.85 h 0.12 L 1250,963.19 1038.13,1175 v 0 l -24.34,24.35 -50.2,50.21 -0.4,0.39 0.4,0.41 286.41,286.45 286.66,-286.66 0.14,-0.16 -0.26,-0.14"
         id="path10" />
    </g>
  </g>
  <metadata
     id="metadata833">
    <rdf:RDF>
      <cc:Work
         rdf:about="">
        <dc:title>bi</dc:title>
      </cc:Work>
    </rdf:RDF>
  </metadata>
</svg>
