<?xml version="1.0" encoding="UTF-8" standalone="no"?>
<!-- Generator: Adobe Illustrator 26.0.1, SVG Export Plug-In . SVG Version: 6.00 Build 0)  -->

<svg
   version="1.1"
   id="Layer_1"
   x="0px"
   y="0px"
   viewBox="0 0 1920 1080"
   xml:space="preserve"
   sodipodi:docname="default-bg-dark.svg"
   inkscape:version="1.1.1 (3bf5ae0d25, 2021-09-20)"
   width="1920"
   height="1080"
   xmlns:inkscape="http://www.inkscape.org/namespaces/inkscape"
   xmlns:sodipodi="http://sodipodi.sourceforge.net/DTD/sodipodi-0.dtd"
   xmlns:xlink="http://www.w3.org/1999/xlink"
   xmlns="http://www.w3.org/2000/svg"
   xmlns:svg="http://www.w3.org/2000/svg"><defs
   id="defs39"><linearGradient
     inkscape:collect="always"
     id="linearGradient922"><stop
       style="stop-color:#000000;stop-opacity:1"
       offset="0"
       id="stop918" /><stop
       style="stop-color:#373737;stop-opacity:1"
       offset="1"
       id="stop920" /></linearGradient><linearGradient
     inkscape:collect="always"
     xlink:href="#linearGradient922"
     id="linearGradient916"
     x1="0"
     y1="1080"
     x2="1920"
     y2="0"
     gradientUnits="userSpaceOnUse" /></defs><sodipodi:namedview
   id="namedview37"
   pagecolor="#ffffff"
   bordercolor="#666666"
   borderopacity="1.0"
   inkscape:pageshadow="2"
   inkscape:pageopacity="0.0"
   inkscape:pagecheckerboard="0"
   showgrid="false"
   inkscape:zoom="0.30328296"
   inkscape:cx="1063.3634"
   inkscape:cy="1178.7672"
   inkscape:window-width="1920"
   inkscape:window-height="1017"
   inkscape:window-x="-8"
   inkscape:window-y="-8"
   inkscape:window-maximized="1"
   inkscape:current-layer="Layer_1"
   fit-margin-top="0"
   fit-margin-left="0"
   fit-margin-right="0"
   fit-margin-bottom="0" />
<style
   type="text/css"
   id="style2">
	.st0{opacity:0.1;fill:none;stroke:#707070;stroke-width:4;}
	.st1{fill:#FFFFFF;}
	.st2{opacity:2.000000e-02;fill:#666666;}
	.st3{opacity:2.000000e-02;fill:#FB6E0D;}
	.st4{opacity:2.000000e-02;fill:#066666;}
	.st5{opacity:0.35;fill:none;stroke:#666666;stroke-width:2.5;stroke-miterlimit:10;stroke-dasharray:5.06,5.06;}
	.st6{opacity:0.1;fill:#FB6E0D;}
	.st7{opacity:0.1;}
	.st8{opacity:0.35;}
	.st9{fill:#FB6E0D;}
</style>
<rect
   style="fill:url(#linearGradient916);fill-opacity:1;stroke-width:8;stroke-linecap:round;stroke-linejoin:round;paint-order:stroke fill markers"
   id="rect878"
   width="1920"
   height="1080"
   x="0"
   y="0" /><g
   id="g34">
	<g
   id="iPhone_12_12_Pro_45">
		<path
   id="Path_380"
   class="st0"
   d="M 1179.5,215.2" />
		<g
   id="HEADER_MENU"
   transform="translate(-1)">
			<g
   id="Group_89"
   transform="translate(-1)">
				<path
   id="Ellipse_5_00000159449886966707979460000002236469397323807664_"
   class="st1"
   d="M 1830.5,33" />
				<path
   id="Ellipse_5_00000167367498635233127170000003272993269042211007_"
   class="st1"
   d="M 1830.5,51" />
			</g>
		</g>
		<g
   id="BACKGROUNd"
   transform="translate(-347.096)">
			<path
   id="Path_514"
   class="st2"
   d="m 1221.2,596.9 149.2,410 -406.1,147.8 -149.2,-410 z m -2.9,338.4 -67.4,-185.3 -183.4,66.8 67.3,185 z" />
			<path
   id="Path_507"
   class="st3"
   d="m 2483.3,18.7 162,445.2 -445.2,162 -162,-445.2 z m -4.4,368 -73.2,-201.2 -201.1,73.2 73.1,200.9 z" />
			<path
   id="Path_508"
   class="st2"
   d="m 2199.7,631.1 162,445.2 -445.2,162 -162,-445.2 z m -4.3,367.9 -73.2,-201.2 -201.1,73.2 73.1,200.9 z" />
			<path
   id="Path_509"
   class="st2"
   d="m 2133.6,452.3 64.1,176.1 -174.4,63.5 -64.1,-176.1 z m -1.3,145.4 -29,-79.6 -78.8,28.7 28.9,79.4 z" />
			<path
   id="Path_510"
   class="st4"
   d="m 2376.6,566.9 64.1,176.1 -174.4,63.5 -64.1,-176.1 z m -1.2,145.3 -29,-79.6 -78.8,28.7 28.9,79.4 z" />
			<path
   id="Path_511"
   class="st3"
   d="m 1971.8,0 162,445.2 -445.2,162 -162,-445.2 z m -4.3,367.9 -73.2,-201.2 -201.1,73.2 73.1,200.9 z" />
			<path
   id="Path_512"
   class="st2"
   d="m 1956,517.3 64.1,176.1 -174.4,63.5 -64.1,-176.1 z m -1.2,145.4 -29,-79.6 -78.8,28.7 28.9,79.4 z" />
			<path
   id="Path_500"
   class="st3"
   d="M 956.7,60.8 1118.7,506 673.5,668 511.5,222.8 Z M 952.3,428.7 879.1,227.5 678,300.7 751.1,501.6 Z" />
			<path
   id="Path_499"
   class="st5"
   d="m 1711.9,969.5 c 0,0 167.4,-313 52.4,-379 -115,-66 -49,-206.6 22.4,-171.1 71.4,35.5 31.8,242.8 -74.8,189.8 -46.9,-23.3 -85.7,-86 -114.5,-148.8 -48.2,-105.3 13.9,-228.6 127.5,-251.3 50.8,-10.2 104.9,-6.5 151.8,27.9" />
			<g
   id="Group_238"
   transform="translate(347.096)">
				<path
   id="Path_447"
   class="st6"
   d="M 134.6,0.1 230,312.2 -82.1,407.5 -177.4,95.4 Z M 118.3,253 75.2,111.9 l -141,43.1 43,140.8 z" />
				<path
   id="Path_454"
   class="st7"
   d="m 1307.3,1272.8 -254.5,-146.9 145.5,-252.1 254.5,146.9 z m -144.9,-175.9 115,66.4 65.7,-113.9 -114.8,-66.3 z" />
				<path
   id="Path_451"
   class="st6"
   d="m 929,962.6 -56.7,321.5 -321.5,-56.7 56.7,-321.5 z m -129.3,218.1 25.6,-145.3 -145.2,-25.6 -25.6,145.1 z" />
				<path
   id="Path_448"
   class="st7"
   d="M 1644.9,395 1486,320.9 1560.1,162 1719,236.1 Z m -95.1,-97.4 71.8,33.5 33.5,-71.7 -71.7,-33.4 z" />
				<path
   id="Path_449"
   class="st6"
   d="M 1842.3,778 V 969.5 H 1650.8 V 778 Z m -52.5,139.1 v -86.6 h -86.5 V 917 Z" />
				<path
   id="Path_452"
   class="st6"
   d="m 523.3,608.3 -36.5,188 -188,-36.5 36.5,-188 z m -78.1,126.5 16.5,-85 -84.9,-16.5 -16.5,84.8 z" />
				<g
   id="Path_453"
   class="st8">
					<path
   class="st9"
   d="m 235.7,989.9 c -0.6,0 -1.1,0 -1.7,0 v -2.5 c 1.7,0 3.3,0 5,0 l 0.1,2.5 c -1.1,0 -2.3,0 -3.4,0 z m -6.8,-0.2 c -1.7,-0.1 -3.4,-0.2 -5.1,-0.4 l 0.2,-2.5 c 1.7,0.2 3.4,0.3 5,0.4 z m 15.3,-0.1 -0.2,-2.5 c 1.7,-0.1 3.3,-0.3 5,-0.5 l 0.3,2.5 c -1.7,0.2 -3.4,0.4 -5.1,0.5 z m -25.5,-0.8 c -1.7,-0.2 -3.4,-0.5 -5.1,-0.7 l 0.4,-2.5 c 1.7,0.3 3.3,0.5 5,0.7 z m 35.7,-0.4 -0.4,-2.4 c 1.6,-0.3 3.3,-0.6 4.9,-0.9 l 0.5,2.4 c -1.6,0.3 -3.3,0.6 -5,0.9 z m -45.7,-1.2 c -1.7,-0.3 -3.3,-0.7 -5,-1 l 0.6,-2.4 c 1.6,0.4 3.3,0.7 4.9,1 z m 55.7,-0.9 -0.6,-2.4 c 1.6,-0.4 3.2,-0.9 4.8,-1.4 l 0.8,2.4 c -1.7,0.5 -3.4,1 -5,1.4 z m -65.7,-1.4 c -1.6,-0.4 -3.3,-0.9 -4.9,-1.3 l 0.7,-2.4 c 1.6,0.5 3.3,0.9 4.8,1.3 z m 75.4,-1.7 -0.9,-2.3 c 1.5,-0.6 3.1,-1.2 4.6,-1.9 l 1,2.3 c -1.5,0.7 -3.1,1.3 -4.7,1.9 z m -85.2,-1.1 c -1.6,-0.5 -3.2,-1 -4.8,-1.6 l 0.8,-2.4 c 1.6,0.5 3.2,1.1 4.8,1.6 z m 94.6,-3 -1.1,-2.2 c 1.5,-0.7 3,-1.5 4.4,-2.3 l 1.2,2.2 c -1.4,0.8 -3,1.6 -4.5,2.3 z m -104.2,-0.2 c -1.6,-0.6 -3.2,-1.2 -4.8,-1.8 l 0.9,-2.3 c 1.6,0.6 3.1,1.2 4.7,1.8 z m -9.5,-3.8 c -1.6,-0.7 -3.1,-1.3 -4.7,-2 l 1,-2.3 c 1.5,0.7 3.1,1.3 4.6,2 z m 122.7,-0.9 -1.3,-2.1 c 1.4,-0.9 2.8,-1.8 4.2,-2.7 l 1.4,2.1 c -1.5,0.8 -2.9,1.8 -4.3,2.7 z m -132,-3.1 c -1.5,-0.7 -3.1,-1.4 -4.6,-2.2 l 1.1,-2.2 c 1.5,0.7 3,1.4 4.6,2.2 z m 140.4,-2.7 -1.5,-2 c 1.3,-1 2.6,-2 3.9,-3.1 l 1.6,1.9 c -1.3,1.1 -2.7,2.2 -4,3.2 z m -149.5,-1.8 c -1.5,-0.8 -3,-1.5 -4.5,-2.3 l 1.2,-2.2 c 1.5,0.8 3,1.5 4.5,2.3 z m -9,-4.7 c -1.5,-0.8 -3,-1.6 -4.4,-2.5 l 1.2,-2.2 c 1.5,0.8 2.9,1.6 4.4,2.5 z m 166.4,0 -1.7,-1.9 c 1.2,-1.1 2.4,-2.2 3.7,-3.4 l 1.7,1.8 c -1.2,1.2 -2.5,2.4 -3.7,3.5 z m -175.3,-5 c -1.5,-0.9 -2.9,-1.7 -4.4,-2.6 l 1.3,-2.1 c 1.4,0.9 2.9,1.7 4.3,2.6 z m 182.6,-2.1 -1.8,-1.7 c 1.1,-1.2 2.3,-2.4 3.4,-3.7 l 1.9,1.7 c -1.2,1.2 -2.4,2.4 -3.5,3.7 z m -191.3,-3.1 c -1.3,-0.8 -2.6,-1.6 -3.9,-2.5 l -0.4,-0.2 1.3,-2.1 0.4,0.2 c 1.3,0.8 2.6,1.6 3.9,2.4 z m 198,-4.6 -1.9,-1.6 c 1.1,-1.3 2.1,-2.6 3.1,-3.9 l 2,1.5 c -1,1.4 -2.1,2.7 -3.2,4 z m -206.5,-0.9 c -1.4,-0.9 -2.8,-1.9 -4.2,-2.8 l 1.4,-2.1 c 1.4,0.9 2.8,1.9 4.2,2.8 z m -8.5,-5.7 c -1.4,-1 -2.8,-2 -4.2,-3 l 1.5,-2 c 1.4,1 2.7,2 4.1,2.9 z M 329,939 l -2,-1.5 c 1,-1.3 1.9,-2.7 2.9,-4.1 l 2.1,1.4 c -1,1.5 -2,2.9 -3,4.2 z M 99.6,934.6 c -1.4,-1 -2.7,-2 -4,-3.1 l 1.5,-2 c 1.3,1 2.7,2.1 4,3.1 z m 235.1,-4 -2.1,-1.3 c 0.9,-1.4 1.8,-2.8 2.6,-4.3 l 2.1,1.3 c -0.8,1.5 -1.7,2.9 -2.6,4.3 z M 91.6,928.3 c -1.3,-1.1 -2.6,-2.1 -3.9,-3.2 l 1.6,-1.9 c 1.3,1.1 2.6,2.2 3.9,3.2 z m 248.4,-6.4 -2.2,-1.2 c 0.8,-1.4 1.6,-2.9 2.4,-4.4 l 2.2,1.2 c -0.8,1.5 -1.6,2.9 -2.4,4.4 z M 83.8,921.7 c -1.3,-1.1 -2.5,-2.2 -3.8,-3.4 l 1.7,-1.8 c 1.2,1.1 2.5,2.3 3.8,3.4 z m -7.5,-6.8 c -1.2,-1.2 -2.4,-2.4 -3.6,-3.6 l 1.8,-1.8 c 1.2,1.2 2.4,2.4 3.6,3.5 z m 268.5,-2 -2.2,-1.1 c 0.8,-1.5 1.5,-3 2.2,-4.5 l 2.2,1.1 c -0.7,1.5 -1.4,3 -2.2,4.5 z M 69.1,907.7 c -1.2,-1.2 -2.3,-2.5 -3.5,-3.7 l 1.9,-1.7 c 1.1,1.2 2.3,2.5 3.4,3.7 z m 280.1,-3.9 -2.3,-1 c 0.7,-1.5 1.4,-3 2.1,-4.6 l 2.3,1 c -0.7,1.5 -1.4,3.1 -2.1,4.6 z M 62.3,900.1 c -1.1,-1.3 -2.2,-2.6 -3.3,-3.9 l 1.9,-1.6 c 1,1.3 2.1,2.6 3.2,3.9 z m 291,-5.6 -2.3,-1 c 0.6,-1.5 1.3,-3.1 1.9,-4.7 l 2.3,0.9 c -0.6,1.7 -1.2,3.2 -1.9,4.8 z M 55.9,892.1 c -1,-1.4 -2,-2.7 -3,-4.1 l 2,-1.5 c 1,1.3 2,2.7 3,4 z M 357,885 l -2.3,-0.9 c 0.6,-1.6 1.2,-3.1 1.7,-4.7 l 2.4,0.8 c -0.6,1.7 -1.2,3.3 -1.8,4.8 z M 49.9,883.8 C 49,882.4 48,880.9 47.1,879.5 l 2.1,-1.3 c 0.9,1.4 1.8,2.8 2.7,4.2 z m 310.6,-8.3 -2.4,-0.8 c 0.5,-1.6 1.1,-3.2 1.6,-4.8 l 2.4,0.8 c -0.5,1.6 -1.1,3.2 -1.6,4.8 z m -316,-0.3 c -0.8,-1.5 -1.7,-3 -2.5,-4.5 l 2.2,-1.2 c 0.8,1.5 1.6,3 2.4,4.4 z m -4.8,-9 c -0.8,-1.5 -1.5,-3.1 -2.2,-4.6 l 2.3,-1 c 0.7,1.5 1.4,3 2.1,4.5 z m 324,-0.4 -2.4,-0.7 c 0.5,-1.6 1,-3.2 1.5,-4.8 l 2.4,0.7 c -0.5,1.6 -1,3.2 -1.5,4.8 z M 35.5,856.9 c -0.6,-1.6 -1.3,-3.2 -1.8,-4.8 l 2.3,-0.9 c 0.6,1.6 1.2,3.1 1.8,4.7 z m 331.1,-0.8 -2.4,-0.7 c 0.5,-1.6 0.9,-3.2 1.4,-4.9 l 2.4,0.7 c -0.5,1.7 -1,3.3 -1.4,4.9 z M 32,847.3 c -0.5,-1.6 -1,-3.2 -1.5,-4.9 l 2.4,-0.7 c 0.5,1.6 1,3.2 1.5,4.8 z m 337.3,-1 -2.4,-0.6 c 0.4,-1.6 0.8,-3.2 1.3,-4.9 l 2.4,0.6 c -0.5,1.7 -0.9,3.3 -1.3,4.9 z M 29.2,837.5 c -0.4,-1.6 -0.8,-3.3 -1.1,-5 l 2.4,-0.5 c 0.3,1.6 0.7,3.3 1.1,4.9 z m 342.5,-1 -2.4,-0.6 c 0.4,-1.6 0.8,-3.3 1.2,-4.9 l 2.4,0.6 c -0.4,1.6 -0.8,3.3 -1.2,4.9 z m -344.6,-9 c -0.3,-1.7 -0.6,-3.4 -0.8,-5 l 2.5,-0.3 c 0.2,1.7 0.5,3.3 0.8,5 z m 346.9,-0.9 -2.4,-0.5 c 0.4,-1.6 0.7,-3.3 1.1,-4.9 l 2.4,0.5 c -0.4,1.6 -0.8,3.3 -1.1,4.9 z M 25.7,817.4 c -0.2,-1.7 -0.3,-3.4 -0.4,-5.1 l 2.5,-0.2 c 0.1,1.7 0.3,3.3 0.4,5 z m 350.4,-0.7 -2.5,-0.5 c 0.3,-1.6 0.7,-3.3 1,-5 l 2.5,0.5 c -0.4,1.7 -0.7,3.3 -1,5 z M 25,807.2 c -0.1,-1.7 -0.1,-3.4 -0.1,-5.1 h 2.5 c 0,1.7 0,3.4 0.1,5 z m 353,-0.5 -2.5,-0.5 c 0.3,-1.6 0.6,-3.3 0.9,-5 l 2.5,0.4 c -0.3,1.8 -0.6,3.5 -0.9,5.1 z M 27.4,797.1 24.9,797 c 0,-1.7 0.1,-3.4 0.2,-5.1 l 2.5,0.1 c -0.1,1.7 -0.1,3.4 -0.2,5.1 z m 352.3,-0.4 -2.5,-0.4 c 0.3,-1.6 0.5,-3.3 0.8,-5 l 2.5,0.4 c -0.2,1.7 -0.5,3.4 -0.8,5 z M 28,787.1 25.5,786.9 c 0.1,-1.7 0.3,-3.4 0.5,-5.1 l 2.5,0.3 c -0.2,1.6 -0.4,3.3 -0.5,5 z m 353.3,-0.4 -2.5,-0.4 c 0.3,-1.7 0.5,-3.3 0.7,-5 l 2.5,0.4 c -0.2,1.7 -0.4,3.4 -0.7,5 z m -352.2,-9.6 -2.5,-0.4 c 0.2,-1.7 0.5,-3.4 0.8,-5 l 2.5,0.4 c -0.3,1.7 -0.5,3.3 -0.8,5 z m 353.7,-0.4 -2.5,-0.3 0.2,-1.7 2.5,0.3 z m -352,-9.5 -2.5,-0.5 c 0.3,-1.6 0.7,-3.3 1,-5 l 2.4,0.5 c -0.2,1.7 -0.6,3.3 -0.9,5 z m 2.2,-9.9 -2.4,-0.6 c 0.4,-1.6 0.8,-3.3 1.3,-4.9 l 2.4,0.6 c -0.5,1.7 -0.9,3.3 -1.3,4.9 z m 2.6,-9.7 -2.4,-0.7 c 0.5,-1.6 1,-3.2 1.5,-4.9 l 2.4,0.8 c -0.6,1.6 -1,3.2 -1.5,4.8 z m 3,-9.6 -2.4,-0.8 c 0.5,-1.6 1.1,-3.2 1.7,-4.8 l 2.4,0.8 c -0.6,1.7 -1.2,3.3 -1.7,4.8 z m 3.4,-9.5 -2.3,-0.9 c 0.6,-1.6 1.2,-3.1 1.8,-4.7 l 2.3,0.9 c -0.6,1.6 -1.2,3.2 -1.8,4.7 z m 3.7,-9.3 -2.3,-1 c 0.6,-1.5 1.3,-3.1 2,-4.7 l 2.3,1 c -0.7,1.6 -1.3,3.1 -2,4.7 z m 4.1,-9.3 -2.3,-1 c 0.7,-1.5 1.4,-3.1 2.1,-4.6 l 2.3,1.1 c -0.7,1.5 -1.4,3 -2.1,4.5 z m 4.3,-9.1 -2.2,-1.1 c 0.7,-1.5 1.5,-3 2.3,-4.5 l 2.2,1.1 c -0.8,1.5 -1.6,3 -2.3,4.5 z m 4.6,-9 -2.2,-1.2 c 0.8,-1.5 1.6,-3 2.4,-4.5 l 2.2,1.2 c -0.9,1.6 -1.7,3.1 -2.4,4.5 z m 4.8,-8.8 -2.2,-1.2 c 0.8,-1.5 1.6,-2.9 2.5,-4.4 l 2.2,1.2 c -0.9,1.5 -1.7,2.9 -2.5,4.4 z m 4.9,-8.8 -2.2,-1.2 c 0.8,-1.5 1.6,-3 2.4,-4.4 l 2.2,1.2 c -0.7,1.4 -1.5,2.9 -2.4,4.4 z m 4.8,-9 -2.2,-1.1 c 0.8,-1.5 1.5,-3 2.2,-4.5 l 2.3,1.1 c -0.8,1.4 -1.6,3 -2.3,4.5 z m 4.4,-9.2 -2.3,-1 c 0.7,-1.5 1.4,-3.1 2.1,-4.6 l 2.3,1 c -0.7,1.5 -1.4,3.1 -2.1,4.6 z m 4,-9.3 -2.3,-1 c 0.6,-1.6 1.3,-3.1 1.9,-4.7 l 2.3,0.9 c -0.6,1.6 -1.2,3.2 -1.9,4.8 z m 3.8,-9.5 -2.3,-0.9 c 0.6,-1.6 1.2,-3.2 1.7,-4.7 l 2.4,0.8 c -0.7,1.6 -1.3,3.2 -1.8,4.8 z m 3.3,-9.6 -2.4,-0.8 c 0.5,-1.6 1,-3.2 1.5,-4.8 l 2.4,0.7 c -0.4,1.7 -1,3.3 -1.5,4.9 z m 3,-9.7 -2.4,-0.7 c 0.5,-1.6 0.9,-3.2 1.4,-4.8 l 2.4,0.7 c -0.5,1.6 -0.9,3.2 -1.4,4.8 z m 2.7,-9.8 -2.4,-0.6 c 0.4,-1.6 0.8,-3.3 1.2,-4.9 l 2.4,0.6 c -0.4,1.7 -0.8,3.3 -1.2,4.9 z m 2.3,-9.8 -2.4,-0.5 c 0.4,-1.6 0.7,-3.3 1,-4.9 l 2.5,0.5 c -0.4,1.6 -0.8,3.2 -1.1,4.9 z m 2,-10 -2.5,-0.4 c 0.3,-1.7 0.6,-3.3 0.9,-5 l 2.5,0.4 c -0.3,1.7 -0.6,3.4 -0.9,5 z m 1.6,-10 -2.5,-0.4 c 0.2,-1.7 0.5,-3.3 0.7,-5 l 2.5,0.3 c -0.2,1.8 -0.4,3.4 -0.7,5.1 z m 1.3,-10 -2.5,-0.3 c 0.2,-1.7 0.4,-3.3 0.5,-5 l 2.5,0.2 c -0.1,1.7 -0.3,3.4 -0.5,5.1 z m 1,-10.1 -2.5,-0.2 c 0.1,-1.7 0.3,-3.3 0.4,-5 l 2.5,0.2 c -0.1,1.6 -0.2,3.3 -0.4,5 z m 0.8,-10.1 -2.5,-0.1 c 0.1,-1.7 0.2,-3.4 0.2,-5 l 2.5,0.1 c -0.1,1.6 -0.2,3.3 -0.2,5 z m 0.4,-10.2 -2.5,-0.1 c 0,-1.7 0.1,-3.4 0.1,-5 h 2.5 c -0.1,1.7 -0.1,3.4 -0.1,5.1 z m -2.4,-10.1 c 0,-1.7 0,-3.4 0,-5 h 2.5 c 0,1.7 0,3.4 0,5.1 z m -0.2,-10.1 c -0.1,-1.7 -0.1,-3.4 -0.2,-5 l 2.5,-0.1 c 0.1,1.7 0.1,3.4 0.2,5.1 z m -0.4,-10.1 c -0.1,-1.7 -0.2,-3.4 -0.3,-5 l 2.5,-0.2 c 0.1,1.7 0.2,3.4 0.3,5.1 z m -0.7,-10.1 c -0.1,-1.7 -0.3,-3.4 -0.4,-5 l 2.5,-0.2 c 0.2,1.7 0.3,3.4 0.4,5.1 z m -1,-10 c -0.2,-1.7 -0.4,-3.4 -0.6,-5 l 2.5,-0.3 c 0.2,1.7 0.4,3.4 0.6,5 z m -1.2,-10 c -0.2,-1.7 -0.5,-3.3 -0.7,-5 l 2.5,-0.4 c 0.2,1.7 0.5,3.3 0.7,5 z m -1.4,-10 c -0.3,-1.7 -0.5,-3.3 -0.8,-5 l 2.5,-0.4 c 0.3,1.7 0.6,3.3 0.8,5 z m -1.7,-10 c -0.3,-1.7 -0.6,-3.3 -0.9,-5 l 2.5,-0.5 c 0.3,1.6 0.6,3.3 0.9,5 z m -1.9,-9.9 c -0.3,-1.7 -0.7,-3.3 -1,-4.9 l 2.4,-0.5 c 0.4,1.6 0.7,3.3 1,5 z m -2.1,-9.9 C 90.4,436 90,434.4 89.7,432.8 l 2.4,-0.6 c 0.4,1.6 0.8,3.3 1.1,4.9 z m -2.4,-9.8 C 88,426.2 87.6,424.6 87.2,423 l 2.4,-0.6 c 0.4,1.6 0.8,3.3 1.3,4.9 z m -2.5,-9.8 c -0.4,-1.6 -0.9,-3.3 -1.4,-4.9 l 2.4,-0.7 c 0.5,1.6 0.9,3.2 1.4,4.9 z m -2.8,-9.7 c -0.5,-1.6 -1,-3.3 -1.5,-4.8 l 2.4,-0.7 c 0.5,1.6 1,3.2 1.5,4.9 z m -2.9,-9.6 c -0.5,-1.6 -1,-3.2 -1.6,-4.8 l 2.4,-0.8 c 0.5,1.6 1,3.2 1.6,4.8 z M 77,389.2 c -0.6,-1.6 -1.1,-3.2 -1.7,-4.8 l 2.4,-0.8 c 0.6,1.5 1.1,3.1 1.7,4.8 z m -3.4,-9.5 C 73,378 72.4,376.5 71.8,375 l 2.3,-0.9 c 0.6,1.5 1.2,3.1 1.8,4.8 z M 70,370.2 c -0.7,-1.7 -1.3,-3.3 -1.9,-4.7 l 2.3,-1 c 0.6,1.4 1.2,3 1.9,4.7 z m -3.9,-9.3 c -1.3,-3 -2.1,-4.6 -2.1,-4.6 l 2.3,-1.1 c 0,0.1 0.8,1.7 2.1,4.7 z"
   id="path24" />
				</g>
			</g>
			<path
   id="Path_501"
   class="st3"
   d="m 673.2,673.1 162,445.2 L 390,1280.3 228,835.1 Z M 668.8,1041 595.6,839.8 394.5,913 l 73.1,200.9 z" />
			<path
   id="Path_502"
   class="st2"
   d="M 607,494.4 671.1,670.5 496.7,734 432.6,557.9 Z m -1.3,145.3 -29,-79.6 -78.7,28.7 28.9,79.4 z" />
			<path
   id="Path_504"
   class="st3"
   d="M 445.2,42.1 607.2,487.3 162,649.3 0,204.1 Z M 440.9,410 367.7,208.8 166.6,282 239.7,482.9 Z" />
			<path
   id="Path_505"
   class="st2"
   d="M 429.4,559.4 493.5,735.5 319.1,799 255,622.9 Z m -1.2,145.3 -29,-79.6 -78.8,28.7 28.9,79.4 z" />
		</g>
	</g>
</g>
</svg>
