<svg xmlns="http://www.w3.org/2000/svg" viewBox="0 0 275.11 80.97"><defs><style>.cls-1{fill:#fa4700;}.cls-2{fill:#333;}</style></defs><g id="Layer_2" data-name="Layer 2"><g id="Layer_1-2" data-name="Layer 1"><path class="cls-1" d="M253,.07V22.18h22.11V.07Zm6.06,16.05v-10h10v10Z"/><path class="cls-2" d="M56.3,68.35C50.15,77.08,42.06,81,30,81,11.76,81,0,67.59,0,50.77c0-15.65,11.32-30.1,29.77-30.1,18.12,0,30.42,12.95,30.42,31.07,0,1.29-.11,1.94-.11,3.23H13.91c1.4,8.52,7.88,13.27,16.07,13.27,6.15,0,10.25-1.73,14.24-5.61ZM45.73,43.65C43.79,37,37.64,32.86,30,32.86c-7.11,0-12.62,3.56-15.42,10.79Z"/><path class="cls-2" d="M68.18,79.46V6L82.52,0V28.44c5.18-5.18,11.12-7.77,18-7.77,14.77,0,27.07,12.3,27.07,30.2,0,17.59-12.84,30.1-27.39,30.1C93,81,87.7,78.38,82.52,73.42Zm15-28.8c0,10.35,6.9,17.15,15.75,17.15s15.53-7.23,15.53-17c0-9.39-6-16.94-15.53-16.94C89.76,33.83,83.18,40.63,83.18,50.66Z"/><path class="cls-2" d="M191.28,50.77a30,30,0,1,1-30.42-30.1A29.84,29.84,0,0,1,191.28,50.77Zm-45.63,0c0,9.7,6.15,16.61,15.43,16.61,8.84,0,15.74-6.47,15.74-16.51,0-9.7-6.36-16.61-15.74-16.61C152.12,34.26,145.65,41.28,145.65,50.77Z"/><path class="cls-2" d="M186.91,22.18h16.72l11.22,15.64,11.32-15.64h16.61L223.15,49.25l22,30.21H228.55l-13.7-18.77L201.36,79.46h-16.5l21.68-30.21Z"/></g></g></svg>