<svg xmlns="http://www.w3.org/2000/svg" viewBox="0 0 325.12 96.07"><defs><style>.cls-1{fill:#ff6200;}.cls-2{fill:#fff;}</style></defs><g id="Layer_2" data-name="Layer 2"><g id="Layer_1-2" data-name="Layer 1"><path class="cls-1" d="M298.89.08V26.32h26.23V.08Zm7.19,19V7.28h11.84V19.12Z"/><path class="cls-2" d="M66.8,81.1c-7.29,10.36-16.89,15-31.22,15C14,96.07,0,80.2,0,60.23c0-18.55,13.44-35.7,35.32-35.7,21.5,0,36.09,15.36,36.09,36.86,0,1.53-.13,2.3-.13,3.84H16.51C18.17,75.33,25.85,81,35.58,81c7.29,0,12.16-2,16.89-6.66ZM54.26,51.79C52,43.85,44.66,39,35.58,39c-8.45,0-15,4.22-18.31,12.8Z"/><path class="cls-2" d="M79.59,94.28V7.17L96.61,0V33.74c6.15-6.14,13.19-9.21,21.38-9.21,17.53,0,32.12,14.59,32.12,35.83,0,20.86-15.23,35.71-32.5,35.71-8.58,0-14.85-3.07-21-9Zm17.8-34.17c0,12.28,8.19,20.35,18.69,20.35s18.43-8.58,18.43-20.23c0-11.13-7.17-20.09-18.43-20.09C105.2,40.14,97.39,48.2,97.39,60.11Z"/><path class="cls-2" d="M225.65,60.23a35.41,35.41,0,0,1-36,35.84c-19.71,0-35.32-15.74-35.32-35.71a35.64,35.64,0,1,1,71.28-.13Zm-54.13,0c0,11.52,7.29,19.71,18.3,19.71,10.49,0,18.68-7.67,18.68-19.58,0-11.51-7.55-19.71-18.68-19.71C179.2,40.65,171.52,49,171.52,60.23Z"/><path class="cls-2" d="M220.47,26.32h19.84l13.31,18.56,13.44-18.56h19.7L263.47,58.44l26.11,35.84H269.87L253.62,72l-16,22.27H218l25.72-35.84Z"/></g></g></svg>